<svg width="56" height="56" viewBox="0 0 56 56" fill="none" xmlns="http://www.w3.org/2000/svg">
<path d="M26.7426 1.14102C26.4027 1.2543 25.5871 1.67344 24.9301 2.06992L23.752 2.79492L25.8816 2.82891C27.0484 2.84023 28.9516 2.84023 30.1297 2.82891L32.248 2.79492L31.0813 2.06992C29.2574 0.948438 28.1133 0.699219 26.7426 1.14102Z" fill="#E0A500"/>
<path d="M8.07383 5.07187L7.72266 5.36641L7.74531 13.3641L7.7793 21.3617L16.3207 28.1359C21.0219 31.8629 24.9074 34.9102 24.9641 34.9102C25.0094 34.9102 25.2586 34.7629 25.5191 34.5816C26.9012 33.5734 29.1102 33.5848 30.5035 34.593C30.8887 34.8762 31.0133 34.9102 31.2172 34.8082C31.3418 34.7516 35.2273 31.693 39.8379 28.0227L48.2207 21.3617L48.2547 13.3641L48.2773 5.36641L47.9262 5.07187L47.575 4.77734H28H8.425L8.07383 5.07187ZM14.984 7.83594C15.1086 7.90391 15.675 8.90078 16.2754 10.0789L17.3402 12.1973V10.3508C17.3516 8.49297 17.4082 8.16445 17.7934 7.86992C18.0992 7.63203 18.6883 7.7 18.9941 8.00586L19.2773 8.27773V12.5371V16.7965L18.9828 17.0684C18.6316 17.3969 18.1898 17.4309 17.8273 17.1703C17.6801 17.0684 17.091 16.0488 16.502 14.882L15.4371 12.7637V14.7574L15.4258 16.7512L15.1313 17.057C14.8027 17.3742 14.259 17.4535 13.9418 17.2043C13.5227 16.8871 13.5 16.6605 13.5 12.4238V8.27773L13.7832 8.00586C14.0777 7.7 14.5988 7.63203 14.984 7.83594ZM25.6324 7.86992C26.1535 8.26641 26.1988 8.8668 25.7457 9.31992C25.4172 9.63711 25.3832 9.64844 24.273 9.64844H23.1289V10.6113V11.5742H23.8086C24.6582 11.5742 25.0547 11.8801 25.0547 12.5371C25.0547 13.1941 24.6582 13.5 23.8086 13.5H23.1289V14.4629V15.4258H24.273C25.3832 15.4258 25.4172 15.4371 25.7457 15.7543C26.1988 16.2074 26.1535 16.8078 25.6324 17.2043C25.4059 17.3855 22.9363 17.3969 22.4832 17.227C22.0301 17.057 21.6562 16.6832 21.4184 16.1621C21.2258 15.7543 21.2031 15.3805 21.2031 12.5824C21.2031 10.5434 21.2484 9.31992 21.3277 9.0707C21.4977 8.59492 21.9508 8.08516 22.3926 7.88125C22.8457 7.68867 25.3719 7.66602 25.6324 7.86992ZM29.6426 8.00586L29.9258 8.27773V11.257L29.9371 14.2363L30.2656 13.5906C30.9566 12.2539 31.8176 12.2312 32.5086 13.534L32.8145 14.123L32.8711 11.1437C32.9277 8.17578 32.9277 8.15312 33.1996 7.93789C33.5621 7.64336 34.0379 7.66602 34.423 7.99453L34.7402 8.26641V12.2766C34.7402 15.9469 34.7176 16.3094 34.5363 16.5926C34.1965 17.125 33.6867 17.3742 33.0637 17.3176C32.4406 17.2609 31.9762 16.8984 31.6023 16.1734L31.3758 15.7316L31.0473 16.3207C30.8547 16.6492 30.5488 17.0117 30.3449 17.125C29.6879 17.5328 28.759 17.3402 28.2832 16.6945C28.068 16.4 28.0566 16.1848 28.0227 12.5371C28 10.4187 28.0227 8.57227 28.0566 8.425C28.2266 7.72266 29.1215 7.47344 29.6426 8.00586ZM41.9902 7.79062C42.2055 7.88125 42.5 8.41367 42.5 8.74219C42.5 8.87812 42.3527 9.13867 42.1715 9.31992C41.843 9.64844 41.8203 9.64844 40.5176 9.64844C39.2715 9.64844 39.1922 9.65977 38.9316 9.93164C38.5805 10.2715 38.5578 10.8605 38.875 11.2117C39.1129 11.4609 39.2602 11.5176 40.0305 11.6195C41.3332 11.7895 42.3414 12.8996 42.466 14.3156C42.5227 14.8934 42.4887 15.0633 42.1715 15.709C41.7863 16.4793 41.2539 16.9551 40.4723 17.2156C40.257 17.2949 39.4527 17.3516 38.6824 17.3516C37.3457 17.3516 37.2664 17.3402 37.0059 17.0684C36.8133 16.8871 36.7227 16.6719 36.7227 16.4227C36.734 15.6297 37.1531 15.4258 38.7051 15.4258C39.8832 15.4258 39.9172 15.4145 40.2457 15.0973C40.9027 14.4289 40.5063 13.6473 39.4188 13.5C38.6371 13.3867 38.048 13.1148 37.5609 12.6277C36.9266 11.9934 36.7793 11.6195 36.7793 10.6113C36.7793 9.81836 36.8246 9.63711 37.0965 9.17266C37.4477 8.57227 37.9914 8.10781 38.6145 7.88125C39.0563 7.72266 41.6391 7.65469 41.9902 7.79062ZM44.1426 20.5801C44.5391 20.9652 44.5164 21.4637 44.0973 21.8941L43.7688 22.2227H28H12.2313L11.9027 21.8941C11.4836 21.4637 11.4609 20.9652 11.8574 20.5801L12.1293 20.2969H28H43.8707L44.1426 20.5801ZM37.3457 26.3574C37.5383 26.5387 37.6289 26.7539 37.6289 27.0371C37.6289 27.3203 37.5383 27.5355 37.3457 27.7168L37.0738 28H28H18.9262L18.6543 27.7168C18.4617 27.5355 18.3711 27.3203 18.3711 27.0371C18.3711 26.7539 18.4617 26.5387 18.6543 26.3574L18.9262 26.0742H28H37.0738L37.3457 26.3574Z" fill="#E0A500"/>
<path d="M50.2031 16.8304C50.2031 19.13 50.2371 19.7304 50.3504 19.6624C50.5883 19.5038 54.2812 16.5585 54.2812 16.5132C54.2812 16.4905 53.477 15.9695 52.5027 15.3577C51.5172 14.7573 50.5996 14.1796 50.4637 14.089L50.2031 13.9304V16.8304Z" fill="#E0A500"/>
<path d="M3.67908 15.2336C2.67088 15.868 1.82127 16.4231 1.77595 16.4571C1.73064 16.5137 4.42674 18.734 5.6615 19.6516C5.76346 19.7422 5.79744 19.1758 5.79744 16.9102C5.79744 14.7012 5.76346 14.0668 5.6615 14.0781C5.58221 14.0781 4.68728 14.6106 3.67908 15.2336Z" fill="#E0A500"/>
<path d="M0.925781 36.009C0.925781 46.5669 0.971094 53.613 1.03906 53.7149C1.11836 53.8508 1.20898 53.8169 1.57148 53.5337C1.80938 53.3411 6.81641 49.3762 12.6844 44.709C22.9363 36.5868 23.3668 36.2356 23.1629 36.043C22.8117 35.7032 1.06172 18.4844 0.99375 18.4844C0.959766 18.4844 0.925781 26.3688 0.925781 36.009Z" fill="#E0A500"/>
<path d="M43.8704 27.2747C37.7986 32.0892 32.7802 36.088 32.7349 36.1333C32.6782 36.1899 37.3568 39.9849 43.5306 44.8899C49.5345 49.6478 54.5415 53.6126 54.6548 53.7032C54.8361 53.8392 54.8814 53.8392 54.972 53.7032C55.0966 53.5106 55.1079 18.4841 54.9946 18.4954C54.938 18.4954 49.9423 22.4489 43.8704 27.2747Z" fill="#E0A500"/>
<path d="M27.1844 35.8957C26.7879 36.043 23.3215 38.7391 14.8027 45.5359C8.28906 50.7242 2.96484 54.9949 2.96484 55.0289C2.96484 55.0516 14.2477 55.0742 28.034 55.0742L53.0918 55.0629L52.5934 54.6438C50.5543 52.9219 29.3367 36.0996 29.0422 35.975C28.4305 35.7031 27.7734 35.6805 27.1844 35.8957Z" fill="#E0A500"/>
</svg>
